<!-- icon666.com - MILLIONS vector ICONS FREE --><svg viewBox="0 0 520 520" xmlns="http://www.w3.org/2000/svg"><g id="_3-Check" data-name="3-Check"><path d="m177.109 467.326-2.238-3.813c-38.432-65.474-140.534-204.4-141.561-205.8l-1.31-1.778 34.4-33.993 110.135 76.9c69.383-90.068 134.115-151.912 176.329-188.02 46.125-39.454 76.15-57.6 76.447-57.784l.607-.364h58.082l-5.014 4.466c-75.719 67.442-154.241 174.3-206.781 252.074-56.971 84.331-96.515 153.58-96.908 154.27z" fill="#b0ef8f"></path><path d="m429.918 52.674-.607.364c-.3.179-30.322 18.33-76.447 57.784-42.214 36.108-106.947 97.952-176.327 188.025l-1.666 164.666 2.238 3.813 2.188-3.842c.393-.69 39.937-69.939 96.908-154.27 52.54-77.77 131.062-184.632 206.781-252.074l5.014-4.466z" fill="#009045"></path></g></svg>